<svg width="37" height="36" viewBox="0 0 37 36" fill="none" xmlns="http://www.w3.org/2000/svg">
<path d="M9.08203 19.4609C8.46094 21.418 5.94141 23.8438 3.87891 23.8438C3.55078 23.8438 3.23438 23.7734 2.94141 23.6445C2.69531 23.5391 2.58984 23.3516 2.58984 23.1406C2.58984 22.2969 4.24219 20.8438 6.48047 20.293C8.12109 19.8945 8.23828 19.9766 9.08203 19.4609ZM0.339844 2.26953C0.199219 3.95703 0.140625 5.80859 0.140625 7.71875C0.140625 11.9492 0.433594 16.5078 0.726562 20.375C0.738281 20.7617 1.01953 21.043 1.33594 21.043C1.47656 21.043 1.61719 20.9961 1.74609 20.8672C1.78125 20.832 1.79297 20.75 1.79297 20.6914C1.83984 19.4727 2.49609 15.0312 3.5625 10.7891C4.24219 8.10547 5.07422 5.51562 6.02344 3.875C7.23047 1.76562 8.32031 0.875 9.17578 0.816406H9.29297C9.75 0.816406 10.1367 1.07422 10.4297 1.53125C10.7812 2.23438 10.9336 2.96094 10.9336 3.69922C10.9336 7.07422 7.72266 10.6133 5.51953 12.0781C5.47266 12.1016 5.44922 12.1719 5.44922 12.2422C5.44922 12.418 5.61328 12.6641 6.22266 12.6641C8.54297 13.1328 9.44531 14.7031 9.44531 16.8594C9.44531 17.4922 9.375 18.1836 9.22266 18.9102C8.36719 19.4961 8.22656 19.4609 6.41016 19.9062C3.76172 20.5625 2.25 22.0625 2.25 23.1055C2.25 23.7617 2.82422 24.2305 4.05469 24.2305C4.3125 24.2305 4.59375 24.2188 4.89844 24.1719C7.26562 23.8438 9.89062 21.2539 10.5 18.6641C11.3672 18.043 11.9766 17.2695 12.7969 16.2383C12.9258 16.0859 13.043 15.9219 13.1719 15.7695C13.207 15.7344 13.2188 15.6875 13.2188 15.6523C13.2188 15.5938 13.1953 15.5352 13.1602 15.5C13.125 15.4648 13.0898 15.4414 13.043 15.4414C12.9961 15.4414 12.9492 15.4648 12.9141 15.5117C12.7734 15.6758 12.6562 15.8281 12.5391 15.9688C11.8359 16.8594 11.2969 17.5391 10.5938 18.1016C10.6289 17.8086 10.6523 17.5273 10.6523 17.2578C10.6523 14.75 9.07031 12.8867 6.91406 12.3008C9.375 10.3906 11.3906 7.74219 11.3906 4.20312C11.3906 4.01562 11.3789 3.82812 11.3672 3.62891C11.3086 2.67969 11.0742 1.87109 10.7109 1.29688C10.3477 0.734375 9.85547 0.417969 9.26953 0.417969H9.15234C8.19141 0.488281 7.00781 1.42578 5.73047 3.65234C4.75781 5.32812 3.91406 7.96484 3.23438 10.6836C2.48438 13.6836 1.93359 16.7773 1.65234 18.793C1.64062 18.6758 1.64062 18.5586 1.62891 18.4414C1.48828 16.2148 1.32422 12.6055 1.32422 8.9375C1.32422 6.73438 1.38281 4.51953 1.54688 2.55078V2.46875C1.54688 2.10547 1.32422 1.98828 1.06641 1.98828C0.726562 1.98828 0.351562 2.17578 0.339844 2.26953ZM13.3008 15.4414C13.4297 13.3906 13.8516 10.9883 14.4844 8.71484C15.3984 5.45703 16.7461 2.45703 18.2695 1.10938C18.5508 0.863281 18.7969 0.757812 18.9844 0.746094C19.1602 0.746094 19.3008 0.851562 19.418 1.05078C19.5469 1.27344 19.6406 1.60156 19.6758 2.01172C19.6992 2.1875 19.6992 2.38672 19.6992 2.58594C19.6992 3.94531 19.3008 5.83203 18.4219 7.69531C16.8281 11.1172 14.2148 14.3633 13.3008 15.4414ZM19.7109 0.875C19.4414 0.417969 19.0898 0.207031 18.7031 0.207031C17.7539 0.207031 16.5352 1.47266 15.457 3.51172C13.6289 6.99219 12.2109 12.3594 12.2109 16.4023C12.2109 18.3945 12.5625 20.0586 13.3711 21.0195C13.5938 21.2891 13.9219 21.3945 14.2734 21.3945C15.1523 21.3945 16.2539 20.7383 16.8281 20.2695C18.1289 19.3789 19.4062 17.832 20.0273 16.8242C20.0391 16.8008 20.0508 16.7656 20.0508 16.7305C20.0508 16.6719 20.0273 16.625 19.9688 16.5898C19.9453 16.5781 19.9102 16.5664 19.875 16.5664C19.8164 16.5664 19.7578 16.5898 19.7227 16.6484C19.1367 17.6211 17.7891 19.0742 16.5352 19.9414C16.0312 20.2812 15.5625 20.5039 15.1055 20.5508C15.0469 20.5625 14.9883 20.5625 14.9297 20.5625C13.4414 20.5625 13.2656 18.2422 13.2656 16.7656C13.2656 16.4727 13.2656 16.2031 13.2773 16.0039C13.6758 15.5586 16.8867 11.8203 18.7383 7.84766C19.6406 5.92578 20.0508 3.96875 20.0508 2.5625C20.0508 2.35156 20.0508 2.16406 20.0273 1.97656C19.9805 1.51953 19.875 1.13281 19.7109 0.875ZM19.3828 17.6445C19.0195 18.3594 18.8672 18.9805 18.8672 19.4844C18.8672 20.5273 19.5352 21.1016 20.3906 21.1016C21.3984 21.1016 22.6875 20.2812 23.4492 18.4766C24.1758 18.1953 24.9844 17.6797 25.8398 16.8594C25.8867 16.8242 25.8984 16.7773 25.8984 16.7305C25.8984 16.6836 25.8867 16.6484 25.8516 16.6133C25.8164 16.5781 25.7812 16.5547 25.7344 16.5547C25.6875 16.5547 25.6406 16.5781 25.6055 16.6133C24.8906 17.2812 24.2344 17.7383 23.625 18.0195C23.6719 17.8672 23.7188 17.7148 23.7656 17.5508C24.0352 16.625 24.1523 15.8398 24.1523 15.1953C24.1523 13.4492 23.2852 12.7227 22.2656 12.7227C20.8242 12.7227 19.1016 14.1523 19.1016 16.1914C19.1016 16.6484 19.1953 17.1406 19.3828 17.6445ZM20.1797 18.3945C20.707 18.793 21.1875 18.9219 21.6328 18.9219C22.1133 18.9219 22.5586 18.7695 23.0039 18.6172C22.3594 19.9766 21.3281 20.668 20.6133 20.668C20.1445 20.668 19.8047 20.375 19.8047 19.7656C19.8047 19.4023 19.9219 18.957 20.1797 18.3945ZM19.9688 16.5898C19.9688 16.5898 19.9453 16.6484 19.8867 16.7305C19.8281 16.5078 19.793 16.2617 19.793 16.0156C19.793 15.9102 19.8047 15.8047 19.8047 15.6992C19.9922 14.1641 21.2578 13.0977 22.3125 13.0977C23.1211 13.0977 23.8125 13.7188 23.8125 15.2188C23.8125 15.8164 23.707 16.5547 23.4375 17.457C23.3672 17.7148 23.2734 17.9609 23.1797 18.207C23.0039 18.2656 22.8398 18.3125 22.6758 18.3477C22.3711 18.4062 22.043 18.4648 21.75 18.4648C21.2461 18.4648 20.8125 18.3125 20.5547 17.7969C20.7539 17.4336 20.9531 17.0352 20.9648 16.9297V16.918C20.9648 16.8125 20.5781 16.4492 20.25 16.4492C20.1445 16.4492 20.0508 16.4961 19.9688 16.5898ZM30.6094 23.9258C30.2461 26.7383 29.5078 30.875 27.5391 33.3477C26.7539 34.332 25.8984 34.8477 25.1953 34.8477C24.8086 34.8477 24.4688 34.6836 24.2227 34.3438C23.9062 33.9102 23.7891 33.4062 23.7891 32.8672C23.7891 31.9531 24.1406 30.9688 24.4805 30.2188C25.6758 27.5117 27.8672 25.918 30.0469 24.3359C30.2344 24.1953 30.4219 24.0664 30.6094 23.9258ZM30.9258 14.4688C30.9727 14.2578 30.9961 14.0703 30.9961 13.8828C30.9961 12.9219 30.3164 12.4062 29.4023 12.4062C28.2305 12.4062 26.6953 13.2383 25.6758 15.043C25.1016 16.1562 24.8672 17.1992 24.8672 18.1016C24.8672 19.8359 25.7578 21.0078 26.9414 21.0078C28.3125 21.0078 30.0703 19.4258 31.2773 15.3008C31.1953 18.0664 31.0078 20.7031 30.668 23.4453C30.3984 23.6562 30.1172 23.8555 29.8359 24.0547C27.8086 25.5312 25.7695 27.0195 24.4922 29.3867C23.6484 30.957 23.2969 32.2695 23.2969 33.2891C23.2969 34.8008 24.0586 35.6445 25.1367 35.6445C27.3984 35.6445 31.0312 31.9648 32.0156 22.8594C34.3242 21.1367 36.0352 20.0352 36.7969 16.6367V16.5898C36.7969 16.5195 36.7383 16.4492 36.668 16.4258H36.6445C36.5508 16.4258 36.4688 16.4844 36.457 16.5664C35.7539 19.707 34.1836 20.7852 32.0273 22.4141C32.3086 19.9648 32.625 14.8438 32.625 12.6289V12.2188C32.625 12.0898 32.4258 12.0078 32.2031 12.0078C31.8984 12.0078 31.5352 12.1602 31.4297 12.5703C31.3828 13.0625 31.0664 14.4336 30.8789 15.0664C30.4453 16.543 30.0234 17.75 28.8984 18.8516C28.3359 19.4023 27.832 19.6367 27.4102 19.6367C26.5781 19.6367 26.0742 18.7227 26.0742 17.5039C26.0742 14.6797 28.0664 13.0508 29.4023 13.0508C30.0703 13.0508 30.5859 13.4609 30.5859 14.3516L30.5742 14.4336C30.5742 14.5156 30.6445 14.5859 30.7266 14.5977H30.7617C30.8438 14.5977 30.9023 14.5508 30.9258 14.4688Z" fill="white"/>
</svg>
